<?xml version="1.0" standalone="no"?>
<!DOCTYPE svg PUBLIC "-//W3C//DTD SVG 20010904//EN"
 "http://www.w3.org/TR/2001/REC-SVG-20010904/DTD/svg10.dtd">
<svg version="1.0" xmlns="http://www.w3.org/2000/svg"
 width="512.000000pt" height="512.000000pt" viewBox="0 0 512.000000 512.000000"
 preserveAspectRatio="xMidYMid meet">

<g transform="translate(0.000000,512.000000) scale(0.100000,-0.100000)"
fill="#000000" stroke="none">
<path d="M2310 5014 c-592 -73 -1087 -310 -1490 -714 -369 -368 -597 -809
-692 -1337 -20 -113 -23 -159 -23 -403 0 -244 3 -290 23 -403 95 -528 323
-969 692 -1337 368 -369 809 -597 1337 -692 113 -20 159 -23 403 -23 244 0
290 3 403 23 528 95 969 323 1337 692 369 368 597 809 692 1337 20 113 23 159
23 403 0 244 -3 290 -23 403 -95 528 -323 969 -692 1337 -366 367 -810 597
-1331 691 -102 18 -168 22 -374 24 -137 2 -266 1 -285 -1z m1670 -1202 c60
-31 122 -93 151 -150 l24 -47 0 -1055 0 -1055 -24 -47 c-29 -57 -91 -119 -151
-150 l-45 -23 -1375 0 -1375 0 -47 24 c-57 29 -119 91 -150 151 l-23 45 0
1055 0 1055 23 45 c41 79 119 147 193 169 22 6 536 9 1394 8 l1360 -2 45 -23z"/>
<path d="M1280 2560 l0 -960 160 0 160 0 2 705 3 706 474 -301 c260 -165 477
-300 481 -300 4 0 221 135 481 300 l474 301 3 -706 2 -705 160 0 160 0 0 960
0 960 -91 0 -91 0 -543 -335 c-298 -184 -548 -335 -555 -335 -7 0 -257 151
-555 335 l-543 335 -91 0 -91 0 0 -960z"/>
</g>
</svg>
