<?xml version="1.0" standalone="no"?>
<!DOCTYPE svg PUBLIC "-//W3C//DTD SVG 20010904//EN"
 "http://www.w3.org/TR/2001/REC-SVG-20010904/DTD/svg10.dtd">
<svg version="1.0" xmlns="http://www.w3.org/2000/svg"
 width="225.000000pt" height="225.000000pt" viewBox="0 0 225.000000 225.000000"
 preserveAspectRatio="xMidYMid meet">

<g transform="translate(0.000000,225.000000) scale(0.100000,-0.100000)"
fill="#000000" stroke="none">
<path d="M692 1473 c-327 -388 -592 -706 -590 -708 2 -3 342 -62 1193 -210 50
-9 142 -25 205 -36 63 -11 180 -31 259 -45 78 -14 145 -23 148 -20 3 2 -84
249 -192 548 -379 1045 -426 1172 -428 1174 -1 1 -269 -315 -595 -703z m732
31 c92 -256 167 -467 165 -469 -4 -4 -538 575 -572 620 -17 23 -17 24 105 169
68 80 125 146 128 146 3 0 81 -210 174 -466z m-610 -315 c-70 -222 -130 -408
-134 -413 -5 -5 -92 6 -199 24 l-190 33 18 23 c64 82 625 743 628 740 2 -1
-54 -185 -123 -407z m250 261 c20 -22 36 -43 36 -46 0 -6 -170 -214 -175 -214
-2 0 7 35 21 78 13 42 34 110 46 150 11 39 24 72 28 72 4 0 24 -18 44 -40z
m101 -296 c20 -58 35 -107 33 -109 -5 -5 -207 31 -215 38 -5 6 127 175 138
176 4 1 23 -47 44 -105z m199 -34 c47 -52 86 -97 86 -101 0 -7 -111 -31 -117
-26 -4 5 -93 249 -93 256 0 7 20 -14 124 -129z m-360 -149 c60 -11 110 -22
112 -24 2 -2 -54 -16 -124 -31 -70 -15 -135 -30 -146 -33 -16 -4 -17 -1 -11
29 13 58 24 78 43 78 10 0 67 -9 126 -19z m690 -211 c34 -96 62 -176 61 -178
-2 -2 -224 35 -493 82 -270 47 -496 86 -503 86 -43 0 48 22 428 104 235 51
431 89 435 86 5 -3 37 -85 72 -180z"/>
</g>
</svg>
